<mxfile host="65bd71144e">
    <diagram id="kgpKYQtTHZ0yAKxKKP6v" name="Page-1">
        <mxGraphModel dx="932" dy="647" grid="1" gridSize="10" guides="1" tooltips="1" connect="1" arrows="1" fold="1" page="1" pageScale="1" pageWidth="850" pageHeight="1100" math="0" shadow="0">
            <root>
                <mxCell id="0"/>
                <mxCell id="1" parent="0"/>
                <mxCell id="uhpOlZhhv4lf9AW0DUsA-94" value="error" style="shape=umlFrame;whiteSpace=wrap;html=1;" parent="1" vertex="1">
                    <mxGeometry x="90" y="820" width="570" height="360" as="geometry"/>
                </mxCell>
                <mxCell id="uhpOlZhhv4lf9AW0DUsA-90" value="loop" style="shape=umlFrame;whiteSpace=wrap;html=1;" parent="1" vertex="1">
                    <mxGeometry x="90" y="380" width="570" height="430" as="geometry"/>
                </mxCell>
                <mxCell id="3nuBFxr9cyL0pnOWT2aG-1" value="Serveur" style="shape=umlLifeline;perimeter=lifelinePerimeter;container=1;collapsible=0;recursiveResize=0;rounded=0;shadow=0;strokeWidth=1;" parent="1" vertex="1">
                    <mxGeometry x="320" y="80" width="100" height="1450" as="geometry"/>
                </mxCell>
                <mxCell id="3nuBFxr9cyL0pnOWT2aG-2" value="" style="points=[];perimeter=orthogonalPerimeter;rounded=0;shadow=0;strokeWidth=1;" parent="3nuBFxr9cyL0pnOWT2aG-1" vertex="1">
                    <mxGeometry x="45" y="70" width="10" height="1340" as="geometry"/>
                </mxCell>
                <mxCell id="uhpOlZhhv4lf9AW0DUsA-33" value="" style="endArrow=classic;html=1;rounded=0;" parent="3nuBFxr9cyL0pnOWT2aG-1" edge="1">
                    <mxGeometry width="50" height="50" relative="1" as="geometry">
                        <mxPoint x="45" y="525" as="sourcePoint"/>
                        <mxPoint x="-125" y="525" as="targetPoint"/>
                    </mxGeometry>
                </mxCell>
                <mxCell id="uhpOlZhhv4lf9AW0DUsA-34" value="next_player" style="edgeLabel;html=1;align=center;verticalAlign=middle;resizable=0;points=[];" parent="uhpOlZhhv4lf9AW0DUsA-33" vertex="1" connectable="0">
                    <mxGeometry x="0.168" y="2" relative="1" as="geometry">
                        <mxPoint x="15" y="-13" as="offset"/>
                    </mxGeometry>
                </mxCell>
                <mxCell id="uhpOlZhhv4lf9AW0DUsA-22" value="" style="points=[];perimeter=orthogonalPerimeter;rounded=0;shadow=0;strokeWidth=1;" parent="3nuBFxr9cyL0pnOWT2aG-1" vertex="1">
                    <mxGeometry x="40" y="397" width="10" height="60" as="geometry"/>
                </mxCell>
                <mxCell id="uhpOlZhhv4lf9AW0DUsA-41" value="" style="points=[];perimeter=orthogonalPerimeter;rounded=0;shadow=0;strokeWidth=1;" parent="3nuBFxr9cyL0pnOWT2aG-1" vertex="1">
                    <mxGeometry x="50" y="600" width="10" height="60" as="geometry"/>
                </mxCell>
                <mxCell id="uhpOlZhhv4lf9AW0DUsA-65" value="" style="points=[];perimeter=orthogonalPerimeter;rounded=0;shadow=0;strokeWidth=1;" parent="3nuBFxr9cyL0pnOWT2aG-1" vertex="1">
                    <mxGeometry x="40" y="850" width="10" height="60" as="geometry"/>
                </mxCell>
                <mxCell id="uhpOlZhhv4lf9AW0DUsA-80" value="" style="points=[];perimeter=orthogonalPerimeter;rounded=0;shadow=0;strokeWidth=1;" parent="3nuBFxr9cyL0pnOWT2aG-1" vertex="1">
                    <mxGeometry x="40" y="950" width="10" height="60" as="geometry"/>
                </mxCell>
                <mxCell id="3nuBFxr9cyL0pnOWT2aG-5" value="Client" style="shape=umlLifeline;perimeter=lifelinePerimeter;container=1;collapsible=0;recursiveResize=0;rounded=0;shadow=0;strokeWidth=1;" parent="1" vertex="1">
                    <mxGeometry x="500" y="80" width="100" height="1440" as="geometry"/>
                </mxCell>
                <mxCell id="3nuBFxr9cyL0pnOWT2aG-6" value="" style="points=[];perimeter=orthogonalPerimeter;rounded=0;shadow=0;strokeWidth=1;" parent="3nuBFxr9cyL0pnOWT2aG-5" vertex="1">
                    <mxGeometry x="45" y="190" width="10" height="1210" as="geometry"/>
                </mxCell>
                <mxCell id="uhpOlZhhv4lf9AW0DUsA-95" value="" style="points=[];perimeter=orthogonalPerimeter;rounded=0;shadow=0;strokeWidth=1;" parent="3nuBFxr9cyL0pnOWT2aG-5" vertex="1">
                    <mxGeometry x="-130" y="1181" width="10" height="60" as="geometry"/>
                </mxCell>
                <mxCell id="uhpOlZhhv4lf9AW0DUsA-96" value="" style="endArrow=classic;html=1;rounded=0;" parent="3nuBFxr9cyL0pnOWT2aG-5" edge="1">
                    <mxGeometry width="50" height="50" relative="1" as="geometry">
                        <mxPoint x="-125" y="1130" as="sourcePoint"/>
                        <mxPoint x="45" y="1130" as="targetPoint"/>
                    </mxGeometry>
                </mxCell>
                <mxCell id="uhpOlZhhv4lf9AW0DUsA-97" value="update_grid" style="edgeLabel;html=1;align=center;verticalAlign=middle;resizable=0;points=[];" parent="uhpOlZhhv4lf9AW0DUsA-96" vertex="1" connectable="0">
                    <mxGeometry x="0.168" y="2" relative="1" as="geometry">
                        <mxPoint x="-17" y="-12" as="offset"/>
                    </mxGeometry>
                </mxCell>
                <mxCell id="uhpOlZhhv4lf9AW0DUsA-98" value="" style="endArrow=classic;html=1;rounded=0;entryX=-0.167;entryY=0.417;entryDx=0;entryDy=0;entryPerimeter=0;" parent="3nuBFxr9cyL0pnOWT2aG-5" edge="1">
                    <mxGeometry width="50" height="50" relative="1" as="geometry">
                        <mxPoint x="-125" y="1275.57" as="sourcePoint"/>
                        <mxPoint x="43.330000000000155" y="1275.57" as="targetPoint"/>
                        <Array as="points"/>
                    </mxGeometry>
                </mxCell>
                <mxCell id="uhpOlZhhv4lf9AW0DUsA-99" value="update grid" style="edgeLabel;html=1;align=center;verticalAlign=middle;resizable=0;points=[];" parent="uhpOlZhhv4lf9AW0DUsA-98" vertex="1" connectable="0">
                    <mxGeometry x="0.168" y="2" relative="1" as="geometry">
                        <mxPoint x="-14" y="-12" as="offset"/>
                    </mxGeometry>
                </mxCell>
                <mxCell id="uhpOlZhhv4lf9AW0DUsA-100" value="" style="endArrow=classic;html=1;rounded=0;entryX=-0.25;entryY=0.32;entryDx=0;entryDy=0;entryPerimeter=0;" parent="3nuBFxr9cyL0pnOWT2aG-5" edge="1">
                    <mxGeometry width="50" height="50" relative="1" as="geometry">
                        <mxPoint x="-125" y="1158.2" as="sourcePoint"/>
                        <mxPoint x="42.5" y="1158.2" as="targetPoint"/>
                    </mxGeometry>
                </mxCell>
                <mxCell id="uhpOlZhhv4lf9AW0DUsA-101" value="play" style="edgeLabel;html=1;align=center;verticalAlign=middle;resizable=0;points=[];" parent="uhpOlZhhv4lf9AW0DUsA-100" vertex="1" connectable="0">
                    <mxGeometry x="0.168" y="2" relative="1" as="geometry">
                        <mxPoint x="-12" y="-12" as="offset"/>
                    </mxGeometry>
                </mxCell>
                <mxCell id="uhpOlZhhv4lf9AW0DUsA-102" value="" style="endArrow=classic;html=1;rounded=0;entryX=0.833;entryY=0.028;entryDx=0;entryDy=0;entryPerimeter=0;" parent="3nuBFxr9cyL0pnOWT2aG-5" target="uhpOlZhhv4lf9AW0DUsA-95" edge="1">
                    <mxGeometry width="50" height="50" relative="1" as="geometry">
                        <mxPoint x="45" y="1182.68" as="sourcePoint"/>
                        <mxPoint x="-130" y="989" as="targetPoint"/>
                    </mxGeometry>
                </mxCell>
                <mxCell id="uhpOlZhhv4lf9AW0DUsA-103" value="process_move" style="edgeLabel;html=1;align=center;verticalAlign=middle;resizable=0;points=[];" parent="uhpOlZhhv4lf9AW0DUsA-102" vertex="1" connectable="0">
                    <mxGeometry x="0.168" y="2" relative="1" as="geometry">
                        <mxPoint x="11" y="-12" as="offset"/>
                    </mxGeometry>
                </mxCell>
                <mxCell id="uhpOlZhhv4lf9AW0DUsA-104" value="" style="endArrow=none;dashed=1;html=1;rounded=0;endFill=0;startArrow=classic;startFill=1;entryX=1.083;entryY=1;entryDx=0;entryDy=0;entryPerimeter=0;" parent="3nuBFxr9cyL0pnOWT2aG-5" target="uhpOlZhhv4lf9AW0DUsA-95" edge="1">
                    <mxGeometry width="50" height="50" relative="1" as="geometry">
                        <mxPoint x="45" y="1241" as="sourcePoint"/>
                        <mxPoint x="-130" y="1048" as="targetPoint"/>
                    </mxGeometry>
                </mxCell>
                <mxCell id="uhpOlZhhv4lf9AW0DUsA-105" value="retourne: is_valid" style="edgeLabel;html=1;align=center;verticalAlign=middle;resizable=0;points=[];" parent="uhpOlZhhv4lf9AW0DUsA-104" vertex="1" connectable="0">
                    <mxGeometry x="-0.2256" y="-1" relative="1" as="geometry">
                        <mxPoint x="-32" y="-13" as="offset"/>
                    </mxGeometry>
                </mxCell>
                <mxCell id="uhpOlZhhv4lf9AW0DUsA-1" value="Client" style="shape=umlLifeline;perimeter=lifelinePerimeter;container=1;collapsible=0;recursiveResize=0;rounded=0;shadow=0;strokeWidth=1;" parent="1" vertex="1">
                    <mxGeometry x="140" y="80" width="100" height="1450" as="geometry"/>
                </mxCell>
                <mxCell id="uhpOlZhhv4lf9AW0DUsA-2" value="" style="points=[];perimeter=orthogonalPerimeter;rounded=0;shadow=0;strokeWidth=1;" parent="uhpOlZhhv4lf9AW0DUsA-1" vertex="1">
                    <mxGeometry x="45" y="80" width="10" height="1330" as="geometry"/>
                </mxCell>
                <mxCell id="uhpOlZhhv4lf9AW0DUsA-4" value="" style="endArrow=classic;html=1;rounded=0;" parent="1" source="uhpOlZhhv4lf9AW0DUsA-1" target="3nuBFxr9cyL0pnOWT2aG-2" edge="1">
                    <mxGeometry width="50" height="50" relative="1" as="geometry">
                        <mxPoint x="250" y="210" as="sourcePoint"/>
                        <mxPoint x="360" y="170" as="targetPoint"/>
                        <Array as="points">
                            <mxPoint x="300" y="160"/>
                        </Array>
                    </mxGeometry>
                </mxCell>
                <mxCell id="uhpOlZhhv4lf9AW0DUsA-12" value="&quot;Connexion au serveur&quot;" style="edgeLabel;html=1;align=center;verticalAlign=middle;resizable=0;points=[];" parent="uhpOlZhhv4lf9AW0DUsA-4" vertex="1" connectable="0">
                    <mxGeometry x="0.0313" y="-4" relative="1" as="geometry">
                        <mxPoint x="1" y="-14" as="offset"/>
                    </mxGeometry>
                </mxCell>
                <mxCell id="uhpOlZhhv4lf9AW0DUsA-10" value="" style="endArrow=none;html=1;rounded=0;endFill=0;startArrow=classic;startFill=1;exitX=0.9;exitY=0.034;exitDx=0;exitDy=0;exitPerimeter=0;" parent="1" source="uhpOlZhhv4lf9AW0DUsA-2" target="3nuBFxr9cyL0pnOWT2aG-2" edge="1">
                    <mxGeometry width="50" height="50" relative="1" as="geometry">
                        <mxPoint x="200" y="220" as="sourcePoint"/>
                        <mxPoint x="370" y="218.51999999999998" as="targetPoint"/>
                    </mxGeometry>
                </mxCell>
                <mxCell id="uhpOlZhhv4lf9AW0DUsA-11" value="player_number" style="edgeLabel;html=1;align=center;verticalAlign=middle;resizable=0;points=[];" parent="uhpOlZhhv4lf9AW0DUsA-10" vertex="1" connectable="0">
                    <mxGeometry x="-0.2256" y="-1" relative="1" as="geometry">
                        <mxPoint x="18" y="-10" as="offset"/>
                    </mxGeometry>
                </mxCell>
                <mxCell id="uhpOlZhhv4lf9AW0DUsA-13" value="" style="endArrow=classic;html=1;rounded=0;exitX=0.6;exitY=0;exitDx=0;exitDy=0;exitPerimeter=0;" parent="1" source="3nuBFxr9cyL0pnOWT2aG-6" target="3nuBFxr9cyL0pnOWT2aG-2" edge="1">
                    <mxGeometry width="50" height="50" relative="1" as="geometry">
                        <mxPoint x="400" y="300" as="sourcePoint"/>
                        <mxPoint x="380" y="270" as="targetPoint"/>
                    </mxGeometry>
                </mxCell>
                <mxCell id="uhpOlZhhv4lf9AW0DUsA-14" value="&quot;Connexion au serveur&quot;" style="edgeLabel;html=1;align=center;verticalAlign=middle;resizable=0;points=[];" parent="uhpOlZhhv4lf9AW0DUsA-13" vertex="1" connectable="0">
                    <mxGeometry x="0.168" y="2" relative="1" as="geometry">
                        <mxPoint x="15" y="-12" as="offset"/>
                    </mxGeometry>
                </mxCell>
                <mxCell id="uhpOlZhhv4lf9AW0DUsA-23" value="" style="endArrow=none;html=1;rounded=0;entryX=1;entryY=0.121;entryDx=0;entryDy=0;entryPerimeter=0;endFill=0;startArrow=classic;startFill=1;" parent="1" source="3nuBFxr9cyL0pnOWT2aG-6" target="3nuBFxr9cyL0pnOWT2aG-2" edge="1">
                    <mxGeometry width="50" height="50" relative="1" as="geometry">
                        <mxPoint x="199.66666666666674" y="231.0000000000001" as="sourcePoint"/>
                        <mxPoint x="380" y="329.1600000000001" as="targetPoint"/>
                        <Array as="points"/>
                    </mxGeometry>
                </mxCell>
                <mxCell id="uhpOlZhhv4lf9AW0DUsA-24" value="player_number" style="edgeLabel;html=1;align=center;verticalAlign=middle;resizable=0;points=[];" parent="uhpOlZhhv4lf9AW0DUsA-23" vertex="1" connectable="0">
                    <mxGeometry x="-0.2256" y="-1" relative="1" as="geometry">
                        <mxPoint x="-21" y="-8" as="offset"/>
                    </mxGeometry>
                </mxCell>
                <mxCell id="uhpOlZhhv4lf9AW0DUsA-25" value="" style="endArrow=classic;html=1;rounded=0;" parent="1" edge="1">
                    <mxGeometry width="50" height="50" relative="1" as="geometry">
                        <mxPoint x="365" y="415" as="sourcePoint"/>
                        <mxPoint x="195" y="414.99999999999994" as="targetPoint"/>
                    </mxGeometry>
                </mxCell>
                <mxCell id="uhpOlZhhv4lf9AW0DUsA-26" value="update_grid" style="edgeLabel;html=1;align=center;verticalAlign=middle;resizable=0;points=[];" parent="uhpOlZhhv4lf9AW0DUsA-25" vertex="1" connectable="0">
                    <mxGeometry x="0.168" y="2" relative="1" as="geometry">
                        <mxPoint x="15" y="-15" as="offset"/>
                    </mxGeometry>
                </mxCell>
                <mxCell id="uhpOlZhhv4lf9AW0DUsA-27" value="" style="endArrow=classic;html=1;rounded=0;" parent="1" edge="1">
                    <mxGeometry width="50" height="50" relative="1" as="geometry">
                        <mxPoint x="365" y="445" as="sourcePoint"/>
                        <mxPoint x="195" y="445" as="targetPoint"/>
                    </mxGeometry>
                </mxCell>
                <mxCell id="uhpOlZhhv4lf9AW0DUsA-28" value="play" style="edgeLabel;html=1;align=center;verticalAlign=middle;resizable=0;points=[];" parent="uhpOlZhhv4lf9AW0DUsA-27" vertex="1" connectable="0">
                    <mxGeometry x="0.168" y="2" relative="1" as="geometry">
                        <mxPoint x="15" y="-12" as="offset"/>
                    </mxGeometry>
                </mxCell>
                <mxCell id="uhpOlZhhv4lf9AW0DUsA-31" value="" style="endArrow=classic;html=1;rounded=0;" parent="1" edge="1">
                    <mxGeometry width="50" height="50" relative="1" as="geometry">
                        <mxPoint x="365" y="575" as="sourcePoint"/>
                        <mxPoint x="195" y="575.0000000000001" as="targetPoint"/>
                        <Array as="points"/>
                    </mxGeometry>
                </mxCell>
                <mxCell id="uhpOlZhhv4lf9AW0DUsA-32" value="update grid" style="edgeLabel;html=1;align=center;verticalAlign=middle;resizable=0;points=[];" parent="uhpOlZhhv4lf9AW0DUsA-31" vertex="1" connectable="0">
                    <mxGeometry x="0.168" y="2" relative="1" as="geometry">
                        <mxPoint x="15" y="-12" as="offset"/>
                    </mxGeometry>
                </mxCell>
                <mxCell id="uhpOlZhhv4lf9AW0DUsA-37" value="" style="endArrow=classic;html=1;rounded=0;" parent="1" edge="1">
                    <mxGeometry width="50" height="50" relative="1" as="geometry">
                        <mxPoint x="375" y="629" as="sourcePoint"/>
                        <mxPoint x="545" y="629" as="targetPoint"/>
                    </mxGeometry>
                </mxCell>
                <mxCell id="uhpOlZhhv4lf9AW0DUsA-38" value="update_grid" style="edgeLabel;html=1;align=center;verticalAlign=middle;resizable=0;points=[];" parent="uhpOlZhhv4lf9AW0DUsA-37" vertex="1" connectable="0">
                    <mxGeometry x="0.168" y="2" relative="1" as="geometry">
                        <mxPoint x="-17" y="-12" as="offset"/>
                    </mxGeometry>
                </mxCell>
                <mxCell id="uhpOlZhhv4lf9AW0DUsA-44" value="" style="endArrow=classic;html=1;rounded=0;entryX=-0.1;entryY=0.419;entryDx=0;entryDy=0;entryPerimeter=0;" parent="1" source="3nuBFxr9cyL0pnOWT2aG-2" target="3nuBFxr9cyL0pnOWT2aG-6" edge="1">
                    <mxGeometry width="50" height="50" relative="1" as="geometry">
                        <mxPoint x="375" y="787" as="sourcePoint"/>
                        <mxPoint x="540" y="770" as="targetPoint"/>
                        <Array as="points"/>
                    </mxGeometry>
                </mxCell>
                <mxCell id="uhpOlZhhv4lf9AW0DUsA-45" value="update grid" style="edgeLabel;html=1;align=center;verticalAlign=middle;resizable=0;points=[];" parent="uhpOlZhhv4lf9AW0DUsA-44" vertex="1" connectable="0">
                    <mxGeometry x="0.168" y="2" relative="1" as="geometry">
                        <mxPoint x="-14" y="-12" as="offset"/>
                    </mxGeometry>
                </mxCell>
                <mxCell id="uhpOlZhhv4lf9AW0DUsA-29" value="" style="endArrow=none;dashed=1;html=1;rounded=0;endFill=0;startArrow=classic;startFill=1;" parent="1" target="uhpOlZhhv4lf9AW0DUsA-22" edge="1">
                    <mxGeometry width="50" height="50" relative="1" as="geometry">
                        <mxPoint x="195" y="537" as="sourcePoint"/>
                        <mxPoint x="200" y="520.8599999999999" as="targetPoint"/>
                    </mxGeometry>
                </mxCell>
                <mxCell id="uhpOlZhhv4lf9AW0DUsA-30" value="retourne: is_valid" style="edgeLabel;html=1;align=center;verticalAlign=middle;resizable=0;points=[];" parent="uhpOlZhhv4lf9AW0DUsA-29" vertex="1" connectable="0">
                    <mxGeometry x="-0.2256" y="-1" relative="1" as="geometry">
                        <mxPoint x="21" y="-13" as="offset"/>
                    </mxGeometry>
                </mxCell>
                <mxCell id="uhpOlZhhv4lf9AW0DUsA-48" value="" style="endArrow=classic;html=1;rounded=0;" parent="1" edge="1">
                    <mxGeometry width="50" height="50" relative="1" as="geometry">
                        <mxPoint x="195" y="478" as="sourcePoint"/>
                        <mxPoint x="360" y="478" as="targetPoint"/>
                    </mxGeometry>
                </mxCell>
                <mxCell id="uhpOlZhhv4lf9AW0DUsA-49" value="process_move" style="edgeLabel;html=1;align=center;verticalAlign=middle;resizable=0;points=[];" parent="uhpOlZhhv4lf9AW0DUsA-48" vertex="1" connectable="0">
                    <mxGeometry x="0.168" y="2" relative="1" as="geometry">
                        <mxPoint x="-17" y="-12" as="offset"/>
                    </mxGeometry>
                </mxCell>
                <mxCell id="uhpOlZhhv4lf9AW0DUsA-50" value="" style="endArrow=classic;html=1;rounded=0;entryX=1;entryY=0.062;entryDx=0;entryDy=0;entryPerimeter=0;" parent="1" source="3nuBFxr9cyL0pnOWT2aG-2" target="uhpOlZhhv4lf9AW0DUsA-2" edge="1">
                    <mxGeometry width="50" height="50" relative="1" as="geometry">
                        <mxPoint x="360" y="260" as="sourcePoint"/>
                        <mxPoint x="190" y="260" as="targetPoint"/>
                    </mxGeometry>
                </mxCell>
                <mxCell id="uhpOlZhhv4lf9AW0DUsA-51" value="wait" style="edgeLabel;html=1;align=center;verticalAlign=middle;resizable=0;points=[];" parent="uhpOlZhhv4lf9AW0DUsA-50" vertex="1" connectable="0">
                    <mxGeometry x="0.168" y="2" relative="1" as="geometry">
                        <mxPoint x="15" y="-13" as="offset"/>
                    </mxGeometry>
                </mxCell>
                <mxCell id="uhpOlZhhv4lf9AW0DUsA-55" value="" style="endArrow=classic;html=1;rounded=0;entryX=0.2;entryY=0.065;entryDx=0;entryDy=0;entryPerimeter=0;" parent="1" source="3nuBFxr9cyL0pnOWT2aG-2" target="3nuBFxr9cyL0pnOWT2aG-6" edge="1">
                    <mxGeometry width="50" height="50" relative="1" as="geometry">
                        <mxPoint x="385" y="570" as="sourcePoint"/>
                        <mxPoint x="215" y="570" as="targetPoint"/>
                    </mxGeometry>
                </mxCell>
                <mxCell id="uhpOlZhhv4lf9AW0DUsA-56" value="wait" style="edgeLabel;html=1;align=center;verticalAlign=middle;resizable=0;points=[];" parent="uhpOlZhhv4lf9AW0DUsA-55" vertex="1" connectable="0">
                    <mxGeometry x="0.168" y="2" relative="1" as="geometry">
                        <mxPoint x="-12" y="-13" as="offset"/>
                    </mxGeometry>
                </mxCell>
                <mxCell id="uhpOlZhhv4lf9AW0DUsA-57" value="" style="endArrow=classic;html=1;rounded=0;entryX=-0.25;entryY=0.32;entryDx=0;entryDy=0;entryPerimeter=0;" parent="1" source="3nuBFxr9cyL0pnOWT2aG-2" target="3nuBFxr9cyL0pnOWT2aG-6" edge="1">
                    <mxGeometry width="50" height="50" relative="1" as="geometry">
                        <mxPoint x="375" y="455" as="sourcePoint"/>
                        <mxPoint x="205" y="455" as="targetPoint"/>
                    </mxGeometry>
                </mxCell>
                <mxCell id="uhpOlZhhv4lf9AW0DUsA-58" value="play" style="edgeLabel;html=1;align=center;verticalAlign=middle;resizable=0;points=[];" parent="uhpOlZhhv4lf9AW0DUsA-57" vertex="1" connectable="0">
                    <mxGeometry x="0.168" y="2" relative="1" as="geometry">
                        <mxPoint x="-12" y="-12" as="offset"/>
                    </mxGeometry>
                </mxCell>
                <mxCell id="uhpOlZhhv4lf9AW0DUsA-59" value="" style="endArrow=classic;html=1;rounded=0;entryX=0.833;entryY=0.028;entryDx=0;entryDy=0;entryPerimeter=0;" parent="1" source="3nuBFxr9cyL0pnOWT2aG-6" target="uhpOlZhhv4lf9AW0DUsA-41" edge="1">
                    <mxGeometry width="50" height="50" relative="1" as="geometry">
                        <mxPoint x="205" y="488" as="sourcePoint"/>
                        <mxPoint x="370" y="488" as="targetPoint"/>
                    </mxGeometry>
                </mxCell>
                <mxCell id="uhpOlZhhv4lf9AW0DUsA-60" value="process_move" style="edgeLabel;html=1;align=center;verticalAlign=middle;resizable=0;points=[];" parent="uhpOlZhhv4lf9AW0DUsA-59" vertex="1" connectable="0">
                    <mxGeometry x="0.168" y="2" relative="1" as="geometry">
                        <mxPoint x="11" y="-12" as="offset"/>
                    </mxGeometry>
                </mxCell>
                <mxCell id="uhpOlZhhv4lf9AW0DUsA-61" value="" style="endArrow=none;dashed=1;html=1;rounded=0;endFill=0;startArrow=classic;startFill=1;entryX=1.083;entryY=1;entryDx=0;entryDy=0;entryPerimeter=0;" parent="1" source="3nuBFxr9cyL0pnOWT2aG-6" target="uhpOlZhhv4lf9AW0DUsA-41" edge="1">
                    <mxGeometry width="50" height="50" relative="1" as="geometry">
                        <mxPoint x="205" y="547" as="sourcePoint"/>
                        <mxPoint x="370" y="547" as="targetPoint"/>
                    </mxGeometry>
                </mxCell>
                <mxCell id="uhpOlZhhv4lf9AW0DUsA-62" value="retourne: is_valid" style="edgeLabel;html=1;align=center;verticalAlign=middle;resizable=0;points=[];" parent="uhpOlZhhv4lf9AW0DUsA-61" vertex="1" connectable="0">
                    <mxGeometry x="-0.2256" y="-1" relative="1" as="geometry">
                        <mxPoint x="-32" y="-13" as="offset"/>
                    </mxGeometry>
                </mxCell>
                <mxCell id="uhpOlZhhv4lf9AW0DUsA-76" value="" style="endArrow=classic;html=1;rounded=0;entryX=-0.083;entryY=0.028;entryDx=0;entryDy=0;entryPerimeter=0;" parent="1" source="uhpOlZhhv4lf9AW0DUsA-2" target="uhpOlZhhv4lf9AW0DUsA-80" edge="1">
                    <mxGeometry width="50" height="50" relative="1" as="geometry">
                        <mxPoint x="200" y="990" as="sourcePoint"/>
                        <mxPoint x="365" y="990" as="targetPoint"/>
                    </mxGeometry>
                </mxCell>
                <mxCell id="uhpOlZhhv4lf9AW0DUsA-77" value="process_move" style="edgeLabel;html=1;align=center;verticalAlign=middle;resizable=0;points=[];" parent="uhpOlZhhv4lf9AW0DUsA-76" vertex="1" connectable="0">
                    <mxGeometry x="0.168" y="2" relative="1" as="geometry">
                        <mxPoint x="-17" y="-12" as="offset"/>
                    </mxGeometry>
                </mxCell>
                <mxCell id="uhpOlZhhv4lf9AW0DUsA-81" value="" style="endArrow=none;dashed=1;html=1;rounded=0;endFill=0;startArrow=classic;startFill=1;entryX=0.167;entryY=1;entryDx=0;entryDy=0;entryPerimeter=0;" parent="1" source="uhpOlZhhv4lf9AW0DUsA-2" target="uhpOlZhhv4lf9AW0DUsA-80" edge="1">
                    <mxGeometry width="50" height="50" relative="1" as="geometry">
                        <mxPoint x="190" y="1040" as="sourcePoint"/>
                        <mxPoint x="355" y="1040" as="targetPoint"/>
                    </mxGeometry>
                </mxCell>
                <mxCell id="uhpOlZhhv4lf9AW0DUsA-82" value="retourne:&amp;nbsp; is_valid" style="edgeLabel;html=1;align=center;verticalAlign=middle;resizable=0;points=[];" parent="uhpOlZhhv4lf9AW0DUsA-81" vertex="1" connectable="0">
                    <mxGeometry x="-0.2256" y="-1" relative="1" as="geometry">
                        <mxPoint x="21" y="-13" as="offset"/>
                    </mxGeometry>
                </mxCell>
                <mxCell id="uhpOlZhhv4lf9AW0DUsA-83" value="" style="endArrow=classic;html=1;rounded=0;exitX=-0.083;exitY=0.748;exitDx=0;exitDy=0;exitPerimeter=0;" parent="1" source="3nuBFxr9cyL0pnOWT2aG-2" target="uhpOlZhhv4lf9AW0DUsA-2" edge="1">
                    <mxGeometry width="50" height="50" relative="1" as="geometry">
                        <mxPoint x="360" y="1099" as="sourcePoint"/>
                        <mxPoint x="190" y="1099" as="targetPoint"/>
                    </mxGeometry>
                </mxCell>
                <mxCell id="uhpOlZhhv4lf9AW0DUsA-84" value="next_player" style="edgeLabel;html=1;align=center;verticalAlign=middle;resizable=0;points=[];" parent="uhpOlZhhv4lf9AW0DUsA-83" vertex="1" connectable="0">
                    <mxGeometry x="0.168" y="2" relative="1" as="geometry">
                        <mxPoint x="15" y="-13" as="offset"/>
                    </mxGeometry>
                </mxCell>
                <mxCell id="uhpOlZhhv4lf9AW0DUsA-85" value="" style="endArrow=classic;html=1;rounded=0;exitX=-0.25;exitY=0.724;exitDx=0;exitDy=0;exitPerimeter=0;" parent="1" source="3nuBFxr9cyL0pnOWT2aG-2" target="uhpOlZhhv4lf9AW0DUsA-2" edge="1">
                    <mxGeometry width="50" height="50" relative="1" as="geometry">
                        <mxPoint x="360" y="1069" as="sourcePoint"/>
                        <mxPoint x="190" y="1069" as="targetPoint"/>
                        <Array as="points"/>
                    </mxGeometry>
                </mxCell>
                <mxCell id="uhpOlZhhv4lf9AW0DUsA-86" value="update grid" style="edgeLabel;html=1;align=center;verticalAlign=middle;resizable=0;points=[];" parent="uhpOlZhhv4lf9AW0DUsA-85" vertex="1" connectable="0">
                    <mxGeometry x="0.168" y="2" relative="1" as="geometry">
                        <mxPoint x="15" y="-12" as="offset"/>
                    </mxGeometry>
                </mxCell>
                <mxCell id="uhpOlZhhv4lf9AW0DUsA-46" value="" style="endArrow=classic;html=1;rounded=0;entryX=0.2;entryY=0.434;entryDx=0;entryDy=0;entryPerimeter=0;" parent="1" source="3nuBFxr9cyL0pnOWT2aG-2" target="3nuBFxr9cyL0pnOWT2aG-6" edge="1">
                    <mxGeometry width="50" height="50" relative="1" as="geometry">
                        <mxPoint x="375" y="817" as="sourcePoint"/>
                        <mxPoint x="550" y="800" as="targetPoint"/>
                    </mxGeometry>
                </mxCell>
                <mxCell id="uhpOlZhhv4lf9AW0DUsA-47" value="next_player" style="edgeLabel;html=1;align=center;verticalAlign=middle;resizable=0;points=[];" parent="uhpOlZhhv4lf9AW0DUsA-46" vertex="1" connectable="0">
                    <mxGeometry x="0.168" y="2" relative="1" as="geometry">
                        <mxPoint x="-14" y="-9" as="offset"/>
                    </mxGeometry>
                </mxCell>
                <mxCell id="uhpOlZhhv4lf9AW0DUsA-74" value="" style="endArrow=classic;html=1;rounded=0;entryX=-0.083;entryY=0.036;entryDx=0;entryDy=0;entryPerimeter=0;" parent="1" source="uhpOlZhhv4lf9AW0DUsA-2" target="uhpOlZhhv4lf9AW0DUsA-65" edge="1">
                    <mxGeometry width="50" height="50" relative="1" as="geometry">
                        <mxPoint x="195" y="903" as="sourcePoint"/>
                        <mxPoint x="360" y="903" as="targetPoint"/>
                    </mxGeometry>
                </mxCell>
                <mxCell id="uhpOlZhhv4lf9AW0DUsA-75" value="process_move" style="edgeLabel;html=1;align=center;verticalAlign=middle;resizable=0;points=[];" parent="uhpOlZhhv4lf9AW0DUsA-74" vertex="1" connectable="0">
                    <mxGeometry x="0.168" y="2" relative="1" as="geometry">
                        <mxPoint x="-17" y="-12" as="offset"/>
                    </mxGeometry>
                </mxCell>
                <mxCell id="uhpOlZhhv4lf9AW0DUsA-72" value="" style="endArrow=none;dashed=1;html=1;rounded=0;endFill=0;startArrow=classic;startFill=1;entryX=-0.167;entryY=1.008;entryDx=0;entryDy=0;entryPerimeter=0;" parent="1" source="uhpOlZhhv4lf9AW0DUsA-2" target="uhpOlZhhv4lf9AW0DUsA-65" edge="1">
                    <mxGeometry width="50" height="50" relative="1" as="geometry">
                        <mxPoint x="195" y="962" as="sourcePoint"/>
                        <mxPoint x="200" y="945.8599999999999" as="targetPoint"/>
                    </mxGeometry>
                </mxCell>
                <mxCell id="uhpOlZhhv4lf9AW0DUsA-73" value="retourne: is_invalid" style="edgeLabel;html=1;align=center;verticalAlign=middle;resizable=0;points=[];" parent="uhpOlZhhv4lf9AW0DUsA-72" vertex="1" connectable="0">
                    <mxGeometry x="-0.2256" y="-1" relative="1" as="geometry">
                        <mxPoint x="21" y="-13" as="offset"/>
                    </mxGeometry>
                </mxCell>
                <mxCell id="uhpOlZhhv4lf9AW0DUsA-68" value="" style="endArrow=classic;html=1;rounded=0;" parent="1" target="uhpOlZhhv4lf9AW0DUsA-2" edge="1">
                    <mxGeometry width="50" height="50" relative="1" as="geometry">
                        <mxPoint x="360" y="900" as="sourcePoint"/>
                        <mxPoint x="195" y="870" as="targetPoint"/>
                    </mxGeometry>
                </mxCell>
                <mxCell id="uhpOlZhhv4lf9AW0DUsA-69" value="play" style="edgeLabel;html=1;align=center;verticalAlign=middle;resizable=0;points=[];" parent="uhpOlZhhv4lf9AW0DUsA-68" vertex="1" connectable="0">
                    <mxGeometry x="0.168" y="2" relative="1" as="geometry">
                        <mxPoint x="15" y="-12" as="offset"/>
                    </mxGeometry>
                </mxCell>
                <mxCell id="uhpOlZhhv4lf9AW0DUsA-66" value="" style="endArrow=classic;html=1;rounded=0;" parent="1" target="uhpOlZhhv4lf9AW0DUsA-2" edge="1">
                    <mxGeometry width="50" height="50" relative="1" as="geometry">
                        <mxPoint x="360" y="860" as="sourcePoint"/>
                        <mxPoint x="195" y="840" as="targetPoint"/>
                    </mxGeometry>
                </mxCell>
                <mxCell id="uhpOlZhhv4lf9AW0DUsA-67" value="update_grid" style="edgeLabel;html=1;align=center;verticalAlign=middle;resizable=0;points=[];" parent="uhpOlZhhv4lf9AW0DUsA-66" vertex="1" connectable="0">
                    <mxGeometry x="0.168" y="2" relative="1" as="geometry">
                        <mxPoint x="15" y="-15" as="offset"/>
                    </mxGeometry>
                </mxCell>
                <mxCell id="uhpOlZhhv4lf9AW0DUsA-121" value="" style="endArrow=classic;html=1;rounded=0;" parent="1" source="3nuBFxr9cyL0pnOWT2aG-2" edge="1">
                    <mxGeometry width="50" height="50" relative="1" as="geometry">
                        <mxPoint x="360" y="1410" as="sourcePoint"/>
                        <mxPoint x="200" y="1370" as="targetPoint"/>
                    </mxGeometry>
                </mxCell>
                <mxCell id="uhpOlZhhv4lf9AW0DUsA-122" value="update_grid" style="edgeLabel;html=1;align=center;verticalAlign=middle;resizable=0;points=[];" parent="uhpOlZhhv4lf9AW0DUsA-121" vertex="1" connectable="0">
                    <mxGeometry x="0.168" y="2" relative="1" as="geometry">
                        <mxPoint x="15" y="-15" as="offset"/>
                    </mxGeometry>
                </mxCell>
                <mxCell id="uhpOlZhhv4lf9AW0DUsA-106" value="" style="endArrow=classic;html=1;rounded=0;exitX=0.917;exitY=0.927;exitDx=0;exitDy=0;exitPerimeter=0;" parent="1" source="3nuBFxr9cyL0pnOWT2aG-2" target="3nuBFxr9cyL0pnOWT2aG-6" edge="1">
                    <mxGeometry width="50" height="50" relative="1" as="geometry">
                        <mxPoint x="375" y="1384.61" as="sourcePoint"/>
                        <mxPoint x="546.6700000000001" y="1384.61" as="targetPoint"/>
                    </mxGeometry>
                </mxCell>
                <mxCell id="uhpOlZhhv4lf9AW0DUsA-107" value="end_game: player_x_win/tie" style="edgeLabel;html=1;align=center;verticalAlign=middle;resizable=0;points=[];" parent="uhpOlZhhv4lf9AW0DUsA-106" vertex="1" connectable="0">
                    <mxGeometry x="0.168" y="2" relative="1" as="geometry">
                        <mxPoint x="-14" y="-9" as="offset"/>
                    </mxGeometry>
                </mxCell>
                <mxCell id="uhpOlZhhv4lf9AW0DUsA-123" value="" style="endArrow=classic;html=1;rounded=0;entryX=1;entryY=0.944;entryDx=0;entryDy=0;entryPerimeter=0;" parent="1" source="3nuBFxr9cyL0pnOWT2aG-2" target="uhpOlZhhv4lf9AW0DUsA-2" edge="1">
                    <mxGeometry width="50" height="50" relative="1" as="geometry">
                        <mxPoint x="284.5900000000001" y="1470" as="sourcePoint"/>
                        <mxPoint x="455.42" y="1470" as="targetPoint"/>
                    </mxGeometry>
                </mxCell>
                <mxCell id="uhpOlZhhv4lf9AW0DUsA-124" value="end_game: player_x_win/tie" style="edgeLabel;html=1;align=center;verticalAlign=middle;resizable=0;points=[];" parent="uhpOlZhhv4lf9AW0DUsA-123" vertex="1" connectable="0">
                    <mxGeometry x="0.168" y="2" relative="1" as="geometry">
                        <mxPoint x="14" y="-18" as="offset"/>
                    </mxGeometry>
                </mxCell>
            </root>
        </mxGraphModel>
    </diagram>
</mxfile>